G04 Layer_Physical_Order=2*
G04 Layer_Color=16711680*
%FSLAX25Y25*%
%MOIN*%
G70*
G01*
G75*
%ADD10R,0.19685X0.02362*%
%ADD12C,0.02000*%
%ADD13C,0.01000*%
%ADD14C,0.06102*%
%ADD15C,0.02362*%
%ADD16C,0.03150*%
G36*
X563840Y-61769D02*
X1223D01*
Y-59092D01*
X1567Y-58908D01*
X1723Y-58870D01*
X2402Y-59005D01*
X2801Y-58925D01*
X3301Y-58928D01*
X3301Y-58928D01*
X3301Y-58928D01*
X24386D01*
X24386Y-58928D01*
X24886Y-58927D01*
X25276Y-59005D01*
X26010Y-58859D01*
X26632Y-58443D01*
X27048Y-57821D01*
X27193Y-57087D01*
X27048Y-56353D01*
X26689Y-55817D01*
X26649Y-55492D01*
X26689Y-55168D01*
X27048Y-54632D01*
X27193Y-53898D01*
X27048Y-53164D01*
X26632Y-52541D01*
Y-52104D01*
X27048Y-51482D01*
X27193Y-50748D01*
X27048Y-50014D01*
X26632Y-49392D01*
X26010Y-48976D01*
X25276Y-48830D01*
X24886Y-48908D01*
X24386Y-48867D01*
Y-48867D01*
X3301D01*
X3301Y-48867D01*
X2801Y-48910D01*
X2402Y-48830D01*
X1723Y-48965D01*
X1567Y-48926D01*
X1223Y-48742D01*
Y-46368D01*
X1723Y-46065D01*
X2402Y-46200D01*
X3253Y-46031D01*
X3276Y-46016D01*
X24402D01*
X24425Y-46031D01*
X25276Y-46200D01*
X26127Y-46031D01*
X26848Y-45549D01*
X27330Y-44827D01*
X27499Y-43976D01*
X27330Y-43125D01*
X26978Y-42599D01*
X26888Y-42244D01*
X26978Y-41890D01*
X27330Y-41363D01*
X27499Y-40512D01*
X27330Y-39661D01*
X26848Y-38939D01*
X26127Y-38457D01*
X25276Y-38288D01*
X24425Y-38457D01*
X24402Y-38473D01*
X3276D01*
X3253Y-38457D01*
X2402Y-38288D01*
X1723Y-38423D01*
X1223Y-38120D01*
Y-35864D01*
X1567Y-35680D01*
X1723Y-35641D01*
X2402Y-35776D01*
X2801Y-35697D01*
X3301Y-35739D01*
Y-35739D01*
X24386D01*
X24386Y-35739D01*
X24886Y-35699D01*
X25276Y-35776D01*
X26010Y-35630D01*
X26632Y-35214D01*
X27048Y-34592D01*
X27193Y-33858D01*
X27048Y-33124D01*
X26632Y-32502D01*
Y-32065D01*
X27048Y-31443D01*
X27193Y-30709D01*
X27048Y-29975D01*
X26632Y-29353D01*
X26010Y-28937D01*
X25276Y-28791D01*
X24886Y-28868D01*
X24386Y-28828D01*
Y-28828D01*
X3301D01*
X3301Y-28828D01*
X2801Y-28870D01*
X2402Y-28791D01*
X1723Y-28926D01*
X1567Y-28887D01*
X1223Y-28703D01*
Y-26420D01*
X1723Y-26136D01*
X2441Y-26279D01*
X3292Y-26110D01*
X3315Y-26094D01*
X13804D01*
X14002Y-26055D01*
X24205D01*
X24346Y-26149D01*
X25197Y-26318D01*
X26048Y-26149D01*
X26769Y-25667D01*
X27251Y-24946D01*
X27421Y-24094D01*
X27251Y-23244D01*
X26815Y-22590D01*
X26767Y-22370D01*
Y-22020D01*
X26848Y-21966D01*
X27330Y-21245D01*
X27499Y-20394D01*
X27330Y-19543D01*
X26848Y-18821D01*
X26127Y-18339D01*
X25276Y-18170D01*
X24425Y-18339D01*
X24284Y-18433D01*
X14161D01*
X13765Y-18354D01*
X3315D01*
X3292Y-18339D01*
X2441Y-18170D01*
X1723Y-18313D01*
X1223Y-18028D01*
Y-15785D01*
X1567Y-15601D01*
X1723Y-15563D01*
X2402Y-15698D01*
X2801Y-15618D01*
X3301Y-15661D01*
Y-15661D01*
X24386D01*
X24386Y-15661D01*
X24886Y-15620D01*
X25276Y-15698D01*
X26010Y-15552D01*
X26632Y-15136D01*
X27048Y-14514D01*
X27193Y-13780D01*
X27048Y-13046D01*
X26632Y-12423D01*
Y-11986D01*
X27048Y-11364D01*
X27193Y-10630D01*
X27048Y-9896D01*
X26632Y-9274D01*
X26726Y-8735D01*
X27048Y-8254D01*
X27193Y-7520D01*
X27048Y-6786D01*
X26683Y-6241D01*
X26632Y-5935D01*
Y-5786D01*
X26698Y-5607D01*
X27087Y-5025D01*
X27233Y-4291D01*
X27087Y-3557D01*
X26671Y-2935D01*
X26049Y-2519D01*
X25315Y-2373D01*
X24886Y-2459D01*
X24386Y-2450D01*
X24386Y-2450D01*
X24386Y-2450D01*
X3301D01*
X3301Y-2450D01*
X2803Y-2445D01*
X2441Y-2373D01*
X1723Y-2516D01*
X1634Y-2528D01*
X1223Y-2255D01*
Y-1223D01*
X563840D01*
Y-61769D01*
D02*
G37*
%LPC*%
G36*
X529552Y-46571D02*
X528573Y-46700D01*
X527660Y-47078D01*
X526877Y-47679D01*
X526275Y-48463D01*
X525898Y-49375D01*
X525769Y-50354D01*
X525898Y-51334D01*
X526275Y-52246D01*
X526877Y-53030D01*
X527660Y-53631D01*
X528573Y-54009D01*
X529552Y-54138D01*
X530531Y-54009D01*
X531444Y-53631D01*
X532228Y-53030D01*
X532829Y-52246D01*
X533207Y-51334D01*
X533336Y-50354D01*
X533207Y-49375D01*
X532829Y-48463D01*
X532228Y-47679D01*
X531444Y-47078D01*
X530531Y-46700D01*
X529552Y-46571D01*
D02*
G37*
G36*
X529355Y-8677D02*
X528376Y-8806D01*
X527463Y-9184D01*
X526680Y-9785D01*
X526079Y-10569D01*
X525701Y-11481D01*
X525572Y-12461D01*
X525701Y-13440D01*
X526079Y-14352D01*
X526680Y-15136D01*
X527463Y-15737D01*
X528376Y-16115D01*
X529355Y-16244D01*
X530335Y-16115D01*
X531247Y-15737D01*
X532031Y-15136D01*
X532632Y-14352D01*
X533010Y-13440D01*
X533139Y-12461D01*
X533010Y-11481D01*
X532632Y-10569D01*
X532031Y-9785D01*
X531247Y-9184D01*
X530335Y-8806D01*
X529355Y-8677D01*
D02*
G37*
%LPD*%
D10*
X13844Y-24016D02*
D03*
Y-20472D02*
D03*
Y-30709D02*
D03*
Y-40512D02*
D03*
Y-44055D02*
D03*
Y-16929D02*
D03*
Y-27559D02*
D03*
Y-33858D02*
D03*
Y-37008D02*
D03*
Y-47598D02*
D03*
Y-50748D02*
D03*
Y-57047D02*
D03*
Y-53898D02*
D03*
Y-13780D02*
D03*
Y-10630D02*
D03*
Y-4331D02*
D03*
Y-7480D02*
D03*
D12*
X2441Y-24055D02*
X13804D01*
X2402Y-47598D02*
X25276D01*
X2402Y-40512D02*
X25276D01*
X6654Y-27638D02*
X6732Y-27559D01*
X2441Y-27559D02*
X6732Y-27559D01*
X2441Y-27559D02*
X25276Y-27559D01*
X13844Y-30709D02*
X25276D01*
X2402Y-30709D02*
X13844D01*
X2402Y-33858D02*
X25276D01*
X2402Y-36968D02*
X25276D01*
X2402Y-43976D02*
X25276D01*
X13844Y-24016D02*
X25118D01*
X13844Y-20472D02*
X25197D01*
X13844Y-16929D02*
X25276D01*
X13844Y-13780D02*
X25276D01*
X13844Y-10630D02*
X25276D01*
X13844Y-7480D02*
X25236D01*
X13844Y-4331D02*
X25276D01*
X2402Y-57087D02*
X25276D01*
X2402Y-53898D02*
X25276D01*
X2402Y-50748D02*
X25276D01*
X13765Y-20394D02*
X13844Y-20472D01*
X2441Y-20394D02*
X13765D01*
X13844Y-16929D02*
X13844Y-16929D01*
X2402Y-16929D02*
X13844D01*
X2402Y-13780D02*
X13844D01*
X2402Y-10630D02*
X13844D01*
X13804Y-7520D02*
X13844Y-7480D01*
X2402Y-7520D02*
X13804D01*
X2441Y-4291D02*
X2480Y-4331D01*
X13844D01*
D13*
X13844Y-13780D02*
X13844Y-13780D01*
X13844Y-10630D02*
X13844Y-10630D01*
D14*
X529355Y-12461D02*
D03*
X529552Y-50354D02*
D03*
D15*
X2441Y-24055D02*
D03*
X25276Y-40512D02*
D03*
Y-27559D02*
D03*
X2441Y-27559D02*
D03*
X2402Y-30709D02*
D03*
Y-33858D02*
D03*
Y-36968D02*
D03*
Y-40512D02*
D03*
Y-43976D02*
D03*
X25197Y-24094D02*
D03*
X25276Y-20394D02*
D03*
X2441Y-4291D02*
D03*
X2402Y-7520D02*
D03*
Y-10630D02*
D03*
Y-13780D02*
D03*
Y-16929D02*
D03*
X2441Y-20394D02*
D03*
X2402Y-47598D02*
D03*
Y-50748D02*
D03*
Y-53898D02*
D03*
Y-57087D02*
D03*
X25276D02*
D03*
Y-53898D02*
D03*
Y-50748D02*
D03*
Y-47598D02*
D03*
Y-43976D02*
D03*
Y-36968D02*
D03*
Y-33858D02*
D03*
Y-30709D02*
D03*
Y-16929D02*
D03*
Y-13780D02*
D03*
Y-10630D02*
D03*
Y-7520D02*
D03*
X25315Y-4291D02*
D03*
D16*
X547859Y-48543D02*
D03*
X543410D02*
D03*
X548568Y-12598D02*
D03*
X543962Y-12638D02*
D03*
X528214Y-30945D02*
D03*
X522662Y-35787D02*
D03*
Y-30709D02*
D03*
X522623Y-25551D02*
D03*
M02*
