G04 Layer_Physical_Order=1*
G04 Layer_Color=255*
%FSLAX25Y25*%
%MOIN*%
G70*
G01*
G75*
%ADD10R,0.19685X0.02362*%
%ADD11R,0.07874X0.01969*%
%ADD12C,0.02000*%
%ADD13C,0.01000*%
%ADD14C,0.06102*%
%ADD15C,0.02362*%
%ADD16C,0.03150*%
G36*
X563840Y-61769D02*
X535392D01*
X535238Y-61420D01*
X535223Y-61269D01*
X540266Y-56226D01*
X540642Y-55663D01*
X540774Y-55000D01*
Y-43671D01*
X541018Y-43426D01*
X545694D01*
X545940Y-43377D01*
X550331D01*
Y-40227D01*
Y-37078D01*
Y-33928D01*
Y-30779D01*
Y-27629D01*
Y-24479D01*
X550331D01*
Y-21111D01*
X545952D01*
X545691Y-21059D01*
X541252D01*
X540459Y-20266D01*
Y-8307D01*
X540327Y-7644D01*
X539951Y-7081D01*
X534990Y-2121D01*
X534428Y-1745D01*
X534320Y-1723D01*
X534369Y-1223D01*
X563840D01*
Y-61769D01*
D02*
G37*
G36*
X535261Y-33160D02*
X535054Y-33660D01*
X534985D01*
X534322Y-33792D01*
X533760Y-34168D01*
X518913Y-49015D01*
X26067D01*
X26010Y-48976D01*
X25276Y-48830D01*
X24886Y-48908D01*
X24386Y-48867D01*
Y-48867D01*
X3301D01*
X3301Y-48867D01*
X2801Y-48910D01*
X2402Y-48830D01*
X1723Y-48965D01*
X1567Y-48926D01*
X1223Y-48742D01*
Y-46368D01*
X1723Y-46065D01*
X2402Y-46200D01*
X3253Y-46031D01*
X3276Y-46016D01*
X13448D01*
X13844Y-46094D01*
X24743D01*
X25276Y-46200D01*
X25808Y-46094D01*
X26221D01*
X27001Y-45939D01*
X27582Y-45551D01*
X28802D01*
X29582Y-45396D01*
X29827Y-45232D01*
X508097D01*
X508473Y-45307D01*
X513410D01*
X514191Y-45152D01*
X514490Y-44952D01*
X518047D01*
Y-41802D01*
Y-38434D01*
X514490D01*
X514191Y-38234D01*
X513410Y-38079D01*
X508473D01*
X508097Y-38154D01*
X27878D01*
X27878Y-38154D01*
X27098Y-38309D01*
X26853Y-38473D01*
X26150D01*
X26127Y-38457D01*
X25276Y-38288D01*
X24425Y-38457D01*
X24402Y-38473D01*
X13844D01*
X13844Y-38473D01*
X3276D01*
X3253Y-38457D01*
X2402Y-38288D01*
X1723Y-38423D01*
X1223Y-38120D01*
Y-35864D01*
X1567Y-35680D01*
X1723Y-35641D01*
X2402Y-35776D01*
X2801Y-35697D01*
X3301Y-35739D01*
Y-35739D01*
X24386D01*
X24386Y-35739D01*
X24886Y-35699D01*
X25276Y-35776D01*
X26010Y-35630D01*
X26067Y-35592D01*
X513371D01*
X513816Y-35503D01*
X518047D01*
Y-32353D01*
Y-28985D01*
X513657D01*
X513410Y-28936D01*
X26006D01*
X25276Y-28791D01*
X24886Y-28868D01*
X24386Y-28828D01*
Y-28828D01*
X3301D01*
X3301Y-28828D01*
X2801Y-28870D01*
X2402Y-28791D01*
X1723Y-28926D01*
X1567Y-28887D01*
X1223Y-28703D01*
Y-26420D01*
X1723Y-26136D01*
X2441Y-26279D01*
X3292Y-26110D01*
X3433Y-26016D01*
X24146D01*
X24346Y-26149D01*
X24382Y-26156D01*
X24417Y-26179D01*
X25197Y-26335D01*
X508097D01*
X508473Y-26409D01*
X513410D01*
X514191Y-26254D01*
X514490Y-26054D01*
X518047D01*
Y-22905D01*
Y-19536D01*
X514490D01*
X514191Y-19336D01*
X513410Y-19181D01*
X508473D01*
X508097Y-19256D01*
X28124D01*
X27899Y-19030D01*
X27237Y-18588D01*
X26457Y-18433D01*
X26311Y-18462D01*
X26127Y-18339D01*
X25276Y-18170D01*
X24425Y-18339D01*
X24284Y-18433D01*
X14161D01*
X13765Y-18354D01*
X3315D01*
X3292Y-18339D01*
X2441Y-18170D01*
X1723Y-18313D01*
X1223Y-18028D01*
Y-15785D01*
X1567Y-15601D01*
X1723Y-15563D01*
X2402Y-15698D01*
X2801Y-15618D01*
X3301Y-15661D01*
Y-15661D01*
X24386D01*
X24386Y-15661D01*
X24886Y-15620D01*
X25276Y-15698D01*
X26010Y-15552D01*
X26067Y-15513D01*
X517614D01*
X535261Y-33160D01*
D02*
G37*
D10*
X13844Y-7480D02*
D03*
Y-4331D02*
D03*
Y-10630D02*
D03*
Y-13780D02*
D03*
Y-53898D02*
D03*
Y-57047D02*
D03*
Y-50748D02*
D03*
Y-47598D02*
D03*
Y-37008D02*
D03*
Y-33858D02*
D03*
Y-27559D02*
D03*
Y-16929D02*
D03*
Y-44055D02*
D03*
Y-40512D02*
D03*
Y-30709D02*
D03*
Y-20472D02*
D03*
Y-24016D02*
D03*
D11*
X513410Y-18071D02*
D03*
X513410Y-21220D02*
D03*
Y-24370D02*
D03*
X513410Y-27520D02*
D03*
Y-30669D02*
D03*
Y-33819D02*
D03*
Y-36968D02*
D03*
Y-40118D02*
D03*
Y-43268D02*
D03*
Y-46417D02*
D03*
X545694Y-44842D02*
D03*
Y-41693D02*
D03*
Y-38543D02*
D03*
Y-35394D02*
D03*
Y-32244D02*
D03*
Y-29094D02*
D03*
Y-25945D02*
D03*
X545694Y-22795D02*
D03*
Y-19646D02*
D03*
X545694Y-16496D02*
D03*
D12*
X2441Y-23976D02*
X25079D01*
X25197Y-24295D02*
X508399D01*
X25079Y-23976D02*
X25197Y-24094D01*
X508399Y-40193D02*
X508473Y-40118D01*
X27878Y-40193D02*
X508399D01*
X508473Y-40118D02*
X513410D01*
X27559Y-40512D02*
X27878Y-40193D01*
X13844Y-40512D02*
X27559D01*
X13844Y-4331D02*
X522387D01*
X523371Y-3347D01*
X13844Y-27559D02*
X513371D01*
X2441D02*
X13844D01*
Y-30669D02*
X513410D01*
X2402Y-30709D02*
X25276D01*
X13844Y-33858D02*
X513371D01*
X13844Y-33858D02*
X13844Y-33858D01*
X2402Y-33858D02*
X13844D01*
X13804Y-36968D02*
X513410D01*
X2402Y-36968D02*
X13804D01*
X2402Y-40512D02*
X13844D01*
X13844Y-44055D02*
X26221D01*
X26764Y-43512D01*
X2402Y-43976D02*
X13765D01*
X13844Y-20472D02*
X25276D01*
X13844Y-10630D02*
X519237D01*
X13804Y-7480D02*
X524198D01*
X13844Y-47598D02*
X512229D01*
X2402Y-47598D02*
X13844D01*
X2402Y-16929D02*
X13844D01*
X13804Y-57047D02*
X521796D01*
X2402Y-57087D02*
X13804D01*
X13346Y-53898D02*
X523883D01*
X2402Y-53898D02*
X13844D01*
X13844Y-50748D02*
X519631D01*
X2402Y-50748D02*
X13844D01*
X13765Y-20394D02*
X13844Y-20472D01*
X2441Y-20394D02*
X13765D01*
X2402Y-13780D02*
X13844D01*
X13844Y-10630D02*
X13844Y-10630D01*
X2402Y-10630D02*
X13844D01*
X13804Y-7520D02*
X13844Y-7480D01*
X2402Y-7520D02*
X13804D01*
X2441Y-4291D02*
X2480Y-4331D01*
X13844D01*
Y-16929D02*
X512269D01*
X13844D02*
X25276D01*
X13844Y-13780D02*
X518332D01*
X13844D02*
X25276D01*
X26764Y-43512D02*
X28802D01*
Y-43193D02*
X508399D01*
X28802Y-43512D02*
X29121Y-43193D01*
X27280Y-21295D02*
X508399D01*
X26457Y-20472D02*
X27280Y-21295D01*
X533765Y-3347D02*
X538725Y-8307D01*
X523371Y-3347D02*
X533765D01*
X524198Y-7480D02*
X524867Y-6811D01*
X519237Y-10630D02*
X520733Y-12126D01*
X518332Y-13780D02*
X536796Y-32244D01*
X524828Y-60079D02*
X533962D01*
X521796Y-57047D02*
X524828Y-60079D01*
X526324Y-56339D02*
X532387D01*
X523883Y-53898D02*
X526324Y-56339D01*
X534985Y-35394D02*
X545694D01*
X519631Y-50748D02*
X534985Y-35394D01*
X512269Y-16929D02*
X513410Y-18071D01*
X512229Y-47598D02*
X513410Y-46417D01*
X513371Y-27559D02*
X513410Y-27520D01*
X508399Y-24295D02*
X508473Y-24370D01*
X513410D01*
X508473Y-21220D02*
X513410D01*
X508399Y-21295D02*
X508473Y-21220D01*
X508399Y-43193D02*
X508473Y-43268D01*
X513410D01*
X536796Y-32244D02*
X545694D01*
X533962Y-60079D02*
X539040Y-55000D01*
Y-42953D01*
X535654Y-53071D02*
Y-40591D01*
X532387Y-56339D02*
X535654Y-53071D01*
Y-40591D02*
X537702Y-38543D01*
X545694D01*
X540300Y-41693D02*
X545694D01*
X539040Y-42953D02*
X540300Y-41693D01*
X540534Y-22793D02*
X545691D01*
X538725Y-20984D02*
X540534Y-22793D01*
X538725Y-20984D02*
Y-8307D01*
X539040Y-25945D02*
X545694D01*
X535025Y-21929D02*
X539040Y-25945D01*
X535025Y-21929D02*
Y-9606D01*
X537702Y-29094D02*
X545694D01*
X520596Y-11988D02*
X537702Y-29094D01*
X532229Y-6811D02*
X535025Y-9606D01*
X524867Y-6811D02*
X532229D01*
D13*
X513371Y-33858D02*
X513410Y-33819D01*
X545691Y-22793D02*
X545694Y-22795D01*
D14*
X529355Y-12461D02*
D03*
X529552Y-50354D02*
D03*
D15*
X2441Y-24055D02*
D03*
X25276Y-40512D02*
D03*
Y-27559D02*
D03*
X2441Y-27559D02*
D03*
X2402Y-30709D02*
D03*
Y-33858D02*
D03*
Y-36968D02*
D03*
Y-40512D02*
D03*
Y-43976D02*
D03*
X25197Y-24094D02*
D03*
X25276Y-20394D02*
D03*
X2441Y-4291D02*
D03*
X2402Y-7520D02*
D03*
Y-10630D02*
D03*
Y-13780D02*
D03*
Y-16929D02*
D03*
X2441Y-20394D02*
D03*
X2402Y-47598D02*
D03*
Y-50748D02*
D03*
Y-53898D02*
D03*
Y-57087D02*
D03*
X25276D02*
D03*
Y-53898D02*
D03*
Y-50748D02*
D03*
Y-47598D02*
D03*
Y-43976D02*
D03*
Y-36968D02*
D03*
Y-33858D02*
D03*
Y-30709D02*
D03*
Y-16929D02*
D03*
Y-13780D02*
D03*
Y-10630D02*
D03*
Y-7520D02*
D03*
X25315Y-4291D02*
D03*
D16*
X547859Y-48543D02*
D03*
X543410D02*
D03*
X548568Y-12598D02*
D03*
X543962Y-12638D02*
D03*
X528214Y-30945D02*
D03*
X522662Y-35787D02*
D03*
Y-30709D02*
D03*
X522623Y-25551D02*
D03*
M02*
