M48
;Layer_Color=9474304
;FILE_FORMAT=2:5
INCH,TZ
;TYPE=PLATED
T1F00S00C0.01181
T2F00S00C0.01575
T3F00S00C0.06102
%
T01
X2402Y-57087
Y-53898
Y-50748
Y-47598
Y-43976
Y-40512
Y-36968
Y-33858
Y-30709
X2441Y-27559
Y-24055
X2441Y-20394
X2402Y-16929
X25276
Y-20394
X25197Y-24094
X25276Y-27559
Y-30709
Y-33858
Y-36968
Y-40512
Y-43976
Y-47598
Y-50748
Y-53898
Y-57087
Y-13780
Y-10630
Y-7520
X25315Y-4291
X2441
X2402Y-7520
Y-10630
Y-13780
T02
X522662Y-35787
Y-30709
X522623Y-25551
X528214Y-30945
X543410Y-48543
X547859
X548568Y-12598
X543962Y-12638
T03
X529552Y-50354
X529355Y-12461
M30
