M48
;Layer_Color=9474304
;FILE_FORMAT=2:5
INCH,TZ
;TYPE=PLATED
T1F00S00C0.01500
T2F00S00C0.01575
T3F00S00C0.02800
T4F00S00C0.04331
%
T01
X257140Y-81262
X251200Y-71182
X257366Y7190
X240494Y8674
Y5554
Y2360
X240605Y-780
X242164Y-14409
X240592Y-24115
X228781Y-24042
X223759Y-24172
X223469Y-34618
X228978Y-34471
X240592Y-37791
X240561Y-40940
X240592Y-44138
X215342Y-38413
X205343
X195343
X185343
X185382Y-46257
X192986Y-46438
X184597Y-55129
X184778Y-67622
X186347Y-81081
X228232Y-81382
X219996Y-4041
X215342Y1587
X205343
X195343
X185343
X155650Y-3334
X127861Y-3180
X105166
X106008Y-33047
X129166Y-33187
X155943Y-33039
X82008Y-33187
X60570Y-33028
X43131Y-33187
X27131Y-33047
X26102Y-2975
X41597Y-3220
X60120Y-3410
X79689Y-3409
T02
X255089Y-67506
X250633Y-58745
X225031Y-48852
X220320Y-48697
T03
X247848Y-20620
X248184Y-13497
T04
X203181Y-73000
Y-63000
X213181
Y-73000
X223181
Y-63000
X233181
X243181
Y-73000
X233181
M30
