G04 Layer_Physical_Order=1*
G04 Layer_Color=255*
%FSLAX25Y25*%
%MOIN*%
G70*
G01*
G75*
%ADD10R,0.19685X0.02362*%
%ADD11R,0.08661X0.02362*%
%ADD12R,0.10236X0.02362*%
%ADD13R,0.13780X0.02362*%
%ADD14C,0.02000*%
%ADD15R,0.07874X0.07874*%
%ADD16C,0.07874*%
%ADD17C,0.03000*%
%ADD18C,0.03150*%
%ADD19C,0.02400*%
%ADD20C,0.05000*%
G36*
X251588Y-22044D02*
Y-54906D01*
X250303Y-56191D01*
X249961Y-56236D01*
X249335Y-56496D01*
X248797Y-56909D01*
X248384Y-57446D01*
X248125Y-58073D01*
X248036Y-58745D01*
X248125Y-59417D01*
X248384Y-60044D01*
X248683Y-60434D01*
X248483Y-60934D01*
X247669D01*
X247494Y-60510D01*
X246702Y-59479D01*
X245671Y-58688D01*
X244470Y-58190D01*
X243181Y-58020D01*
X241892Y-58190D01*
X240691Y-58688D01*
X239660Y-59479D01*
X238869Y-60510D01*
X238452Y-61517D01*
X237911D01*
X237494Y-60510D01*
X236702Y-59479D01*
X235671Y-58688D01*
X234470Y-58190D01*
X233181Y-58020D01*
X231892Y-58190D01*
X230691Y-58688D01*
X229660Y-59479D01*
X228869Y-60510D01*
X228371Y-61711D01*
X228202Y-63000D01*
X228371Y-64289D01*
X228869Y-65490D01*
X229660Y-66521D01*
X230691Y-67313D01*
X231698Y-67729D01*
Y-68271D01*
X230691Y-68687D01*
X229660Y-69479D01*
X228869Y-70510D01*
X228452Y-71517D01*
X227910D01*
X227494Y-70510D01*
X226702Y-69479D01*
X225671Y-68687D01*
X224470Y-68190D01*
X223181Y-68020D01*
X221892Y-68190D01*
X220691Y-68687D01*
X219660Y-69479D01*
X218869Y-70510D01*
X218452Y-71517D01*
X217911D01*
X217494Y-70510D01*
X216702Y-69479D01*
X215671Y-68687D01*
X214664Y-68271D01*
Y-67729D01*
X215671Y-67313D01*
X216702Y-66521D01*
X217494Y-65490D01*
X217991Y-64289D01*
X218161Y-63000D01*
X217991Y-61711D01*
X217494Y-60510D01*
X216702Y-59479D01*
X215671Y-58688D01*
X214470Y-58190D01*
X213181Y-58020D01*
X211892Y-58190D01*
X210691Y-58688D01*
X209660Y-59479D01*
X208869Y-60510D01*
X208618Y-61115D01*
X208118Y-61015D01*
Y-58063D01*
X199021D01*
X198830Y-57601D01*
X199765Y-56666D01*
X224855D01*
X225635Y-56511D01*
X226297Y-56069D01*
X228766Y-53600D01*
X244571D01*
X245351Y-53445D01*
X246013Y-53003D01*
X248529Y-50487D01*
X248971Y-49825D01*
X249126Y-49045D01*
Y-40288D01*
X248971Y-39508D01*
X248529Y-38846D01*
X246032Y-36349D01*
X245370Y-35907D01*
X244590Y-35752D01*
X242776D01*
Y-35598D01*
X240843D01*
X240592Y-35548D01*
X240341Y-35598D01*
X221092D01*
Y-39960D01*
Y-42158D01*
X220609Y-42254D01*
X219947Y-42696D01*
X219947Y-42696D01*
X218878Y-43765D01*
X218436Y-44427D01*
X218281Y-45207D01*
Y-47125D01*
X218071Y-47398D01*
X217811Y-48025D01*
X217723Y-48697D01*
X217811Y-49369D01*
X218071Y-49995D01*
X218484Y-50533D01*
X219022Y-50946D01*
X219648Y-51205D01*
X220320Y-51294D01*
X220992Y-51205D01*
X221619Y-50946D01*
X222156Y-50533D01*
X222314Y-50328D01*
X222396Y-50297D01*
X222931Y-50345D01*
X223195Y-50688D01*
X223732Y-51101D01*
X224359Y-51360D01*
X224511Y-51380D01*
X224690Y-51908D01*
X224010Y-52588D01*
X198920D01*
X198140Y-52743D01*
X197478Y-53185D01*
X197478Y-53185D01*
X193383Y-57280D01*
X192941Y-57942D01*
X192786Y-58722D01*
Y-75752D01*
X192941Y-76532D01*
X193383Y-77194D01*
X197738Y-81549D01*
X198400Y-81991D01*
X199180Y-82146D01*
X216074D01*
X216855Y-81991D01*
X217516Y-81549D01*
X221442Y-77623D01*
X221892Y-77810D01*
X223181Y-77980D01*
X224470Y-77810D01*
X225671Y-77312D01*
X226702Y-76521D01*
X227494Y-75490D01*
X227910Y-74483D01*
X228452D01*
X228869Y-75490D01*
X229660Y-76521D01*
X230691Y-77312D01*
X231892Y-77810D01*
X233181Y-77980D01*
X234470Y-77810D01*
X235671Y-77312D01*
X236702Y-76521D01*
X237494Y-75490D01*
X237911Y-74483D01*
X238452D01*
X238869Y-75490D01*
X239660Y-76521D01*
X240691Y-77312D01*
X241892Y-77810D01*
X243181Y-77980D01*
X244470Y-77810D01*
X245671Y-77312D01*
X246702Y-76521D01*
X247494Y-75490D01*
X247991Y-74289D01*
X248161Y-73000D01*
X247991Y-71711D01*
X247494Y-70510D01*
X246702Y-69479D01*
X245671Y-68687D01*
X244664Y-68271D01*
Y-67729D01*
X245671Y-67313D01*
X246702Y-66521D01*
X247494Y-65490D01*
X247691Y-65012D01*
X253208D01*
X253316Y-64991D01*
X253528Y-65458D01*
X253253Y-65670D01*
X252840Y-66207D01*
X252580Y-66834D01*
X252492Y-67506D01*
X252580Y-68178D01*
X252840Y-68805D01*
X253253Y-69342D01*
X253790Y-69755D01*
X254417Y-70015D01*
X255089Y-70103D01*
X255761Y-70015D01*
X256387Y-69755D01*
X256925Y-69342D01*
X257338Y-68805D01*
X257597Y-68178D01*
X257643Y-67836D01*
X261611Y-63867D01*
X262111Y-64075D01*
Y-85725D01*
X180956D01*
Y-41500D01*
X180859Y-41012D01*
X180582Y-40599D01*
X174909Y-34926D01*
X174496Y-34649D01*
X174008Y-34552D01*
X15158D01*
Y-31905D01*
X16453D01*
Y-31764D01*
X216373D01*
X217031Y-32422D01*
X217693Y-32864D01*
X218473Y-33019D01*
X221092D01*
Y-33267D01*
X242776D01*
Y-29724D01*
Y-25362D01*
X221092D01*
Y-25370D01*
X220591Y-25577D01*
X220148Y-25133D01*
X219486Y-24691D01*
X218706Y-24536D01*
X16453D01*
Y-24394D01*
X15158D01*
Y-22457D01*
X16453D01*
Y-22046D01*
X216622D01*
X216743Y-22167D01*
X217405Y-22609D01*
X218185Y-22764D01*
X221092D01*
Y-23070D01*
X242776D01*
Y-22928D01*
X245208D01*
X245352Y-23116D01*
X246083Y-23677D01*
X246934Y-24030D01*
X247848Y-24150D01*
X248762Y-24030D01*
X249613Y-23677D01*
X250344Y-23116D01*
X250905Y-22385D01*
X251088Y-21944D01*
X251588Y-22044D01*
D02*
G37*
G36*
X262111Y-1049D02*
X261611Y-1256D01*
X250239Y10116D01*
X249577Y10558D01*
X248797Y10713D01*
X242776D01*
Y10819D01*
X240985D01*
X240494Y10917D01*
X240003Y10819D01*
X221092D01*
Y6457D01*
Y3308D01*
Y158D01*
Y-2992D01*
X240446D01*
X240605Y-3023D01*
X240764Y-2992D01*
X242776D01*
Y-1140D01*
X242848Y-780D01*
X242776Y-420D01*
Y321D01*
X245435D01*
X251588Y-5832D01*
Y-11362D01*
X251088Y-11532D01*
X250680Y-11001D01*
X249949Y-10440D01*
X249098Y-10087D01*
X248184Y-9967D01*
X247270Y-10087D01*
X246419Y-10440D01*
X245688Y-11001D01*
X245127Y-11732D01*
X244774Y-12583D01*
X244654Y-13497D01*
X244729Y-14068D01*
X243265Y-15532D01*
X242776Y-15559D01*
Y-15559D01*
X221092D01*
X221092Y-15559D01*
X220591Y-15633D01*
X220006Y-15242D01*
X219226Y-15087D01*
X16453D01*
Y-14945D01*
X15158D01*
Y-13008D01*
X16453D01*
Y-12866D01*
X221092D01*
Y-13228D01*
X242776D01*
Y-9684D01*
Y-5322D01*
X221092D01*
Y-5638D01*
X16453D01*
Y-5496D01*
X15158D01*
Y-1275D01*
X174516D01*
X175004Y-1178D01*
X175417Y-901D01*
X188717Y12399D01*
X262111D01*
Y-1049D01*
D02*
G37*
D10*
X231934Y5489D02*
D03*
Y8638D02*
D03*
Y2339D02*
D03*
Y-810D02*
D03*
Y-40929D02*
D03*
Y-44078D02*
D03*
Y-37779D02*
D03*
Y-34629D02*
D03*
Y-24039D02*
D03*
Y-20889D02*
D03*
Y-14590D02*
D03*
Y-3960D02*
D03*
Y-31086D02*
D03*
Y-27543D02*
D03*
Y-17740D02*
D03*
Y-7503D02*
D03*
Y-11047D02*
D03*
D11*
X11122Y-10827D02*
D03*
Y-7677D02*
D03*
Y-26575D02*
D03*
Y-29724D02*
D03*
D12*
X10335Y-17126D02*
D03*
Y-20276D02*
D03*
D13*
X8563Y-4528D02*
D03*
Y-13976D02*
D03*
Y-23425D02*
D03*
Y-32874D02*
D03*
D14*
X221389Y-44138D02*
X240592D01*
X220320Y-45207D02*
X221389Y-44138D01*
X220320Y-48697D02*
Y-45207D01*
X225031Y-48852D02*
X226045Y-47838D01*
X227921Y-51561D02*
X244571D01*
X224855Y-54627D02*
X227921Y-51561D01*
X198920Y-54627D02*
X224855D01*
X216074Y-80107D02*
X223181Y-73000D01*
X199180Y-80107D02*
X216074D01*
X194825Y-75752D02*
X199180Y-80107D01*
X194825Y-75752D02*
Y-58722D01*
X198920Y-54627D01*
X247087Y-49045D02*
Y-40288D01*
X244590Y-37791D02*
X247087Y-40288D01*
X240592Y-37791D02*
X244590D01*
X244090Y-46934D02*
Y-41948D01*
X243082Y-40940D02*
X244090Y-41948D01*
X240561Y-40940D02*
X243082D01*
X243186Y-47838D02*
X244090Y-46934D01*
X226045Y-47838D02*
X243186D01*
X244571Y-51561D02*
X247087Y-49045D01*
X250307Y-51863D02*
Y-36048D01*
X245879Y-56291D02*
X250307Y-51863D01*
X243581Y-29322D02*
X250307Y-36048D01*
X246280Y2360D02*
X253627Y-4987D01*
Y-55751D02*
Y-4987D01*
X250633Y-58745D02*
X253627Y-55751D01*
X243581Y-29322D02*
Y-24742D01*
Y-33871D02*
Y-29322D01*
X229890Y-56291D02*
X245879D01*
X223181Y-63000D02*
X229890Y-56291D01*
X260440Y-62155D02*
Y-2969D01*
X255089Y-67506D02*
X260440Y-62155D01*
X248797Y8674D02*
X260440Y-2969D01*
X240494Y8674D02*
X248797D01*
X247469Y5554D02*
X256963Y-3940D01*
Y-59218D02*
Y-3940D01*
X253208Y-62973D02*
X256963Y-59218D01*
X240494Y2360D02*
X246280D01*
X243454Y-62973D02*
X253208D01*
X11122Y-7677D02*
X233121D01*
X11122Y-26575D02*
X218706D01*
X220111Y-27980D01*
X233620D01*
X11122Y-29724D02*
X217217D01*
X218473Y-30980D01*
X221964D01*
X231366Y-4528D02*
X231934Y-3960D01*
X220983Y-14590D02*
X231934D01*
X8563Y-13976D02*
X8713Y-13827D01*
X8563Y-23425D02*
X220697D01*
X8563Y-32874D02*
X8713Y-32724D01*
X220220Y-13827D02*
X220983Y-14590D01*
X11122Y-10827D02*
X231376D01*
X8713Y-13827D02*
X220220D01*
X10335Y-17126D02*
X219226D01*
X219840Y-17740D01*
X231934D01*
X220697Y-23425D02*
X221042Y-23770D01*
X10603Y-20007D02*
X217467D01*
X10335Y-20276D02*
X10603Y-20007D01*
X221042Y-23770D02*
X231665D01*
X231934Y-24039D01*
X231770Y-20725D02*
X231934Y-20889D01*
X217467Y-20007D02*
X218185Y-20725D01*
X231770D01*
X240775Y-34629D02*
X242823D01*
X240592Y-34446D02*
X240775Y-34629D01*
X240409D02*
X240592Y-34446D01*
X231934Y-3960D02*
X231945Y-3949D01*
X8563Y-4528D02*
X231366D01*
X242823Y-34629D02*
X243581Y-33871D01*
X231272Y-33967D02*
X231934Y-34629D01*
X8713Y-32724D02*
X215975D01*
X217230Y-33980D01*
X223207D01*
X223219Y-33967D01*
X231272D01*
X240592Y-24115D02*
X242954D01*
X243581Y-24742D01*
X247579Y-20889D02*
X247848Y-20620D01*
X231934Y-20889D02*
X247579D01*
X240494Y2360D02*
X240734Y2120D01*
X240494Y5554D02*
X247469D01*
X231934Y-17740D02*
X243941D01*
X248184Y-13497D01*
X231945Y-3949D02*
X242360D01*
X231934Y-14590D02*
X243273D01*
X242360Y-3949D02*
X243708Y-5297D01*
Y-14154D02*
Y-5297D01*
X243273Y-14590D02*
X243708Y-14154D01*
D15*
X203181Y-63000D02*
D03*
D16*
X213181D02*
D03*
X203181Y-73000D02*
D03*
X213181D02*
D03*
X233181Y-63000D02*
D03*
X223181D02*
D03*
X243181D02*
D03*
X233181Y-73000D02*
D03*
X223181D02*
D03*
X243181D02*
D03*
D17*
X251200Y-71182D02*
D03*
X257366Y7190D02*
D03*
X257140Y-81262D02*
D03*
X228232Y-81382D02*
D03*
X186347Y-81081D02*
D03*
X184778Y-67622D02*
D03*
X184597Y-55129D02*
D03*
X192986Y-46438D02*
D03*
X185382Y-46257D02*
D03*
X185343Y-38413D02*
D03*
Y1587D02*
D03*
X195343Y-38413D02*
D03*
Y1587D02*
D03*
X205343Y-38413D02*
D03*
Y1587D02*
D03*
X215342Y-38413D02*
D03*
Y1587D02*
D03*
D18*
X220320Y-48697D02*
D03*
X225031Y-48852D02*
D03*
X255089Y-67506D02*
D03*
X250633Y-58745D02*
D03*
D19*
X240592Y-24115D02*
D03*
X240494Y8674D02*
D03*
X240592Y-37791D02*
D03*
X240561Y-40940D02*
D03*
X223759Y-24172D02*
D03*
X228781Y-24042D02*
D03*
X223469Y-34618D02*
D03*
X228978Y-34471D02*
D03*
X240592Y-44138D02*
D03*
X240605Y-780D02*
D03*
X240494Y2360D02*
D03*
Y5554D02*
D03*
X26102Y-2975D02*
D03*
X41597Y-3220D02*
D03*
X60120Y-3410D02*
D03*
X79689Y-3409D02*
D03*
X105166Y-3180D02*
D03*
X127861D02*
D03*
X155650Y-3334D02*
D03*
X27131Y-33047D02*
D03*
X43131Y-33187D02*
D03*
X82008D02*
D03*
X106008Y-33047D02*
D03*
X129166Y-33187D02*
D03*
X155943Y-33039D02*
D03*
X60570Y-33028D02*
D03*
X219996Y-4041D02*
D03*
X242164Y-14409D02*
D03*
D20*
X248184Y-13497D02*
D03*
X247848Y-20620D02*
D03*
M02*
