G04 Layer_Physical_Order=1*
G04 Layer_Color=255*
%FSAX25Y25*%
%MOIN*%
G70*
G01*
G75*
%ADD10R,0.13780X0.02362*%
%ADD11R,0.10236X0.02362*%
%ADD12R,0.08661X0.02362*%
%ADD13R,0.19685X0.02362*%
%ADD14C,0.02000*%
%ADD15C,0.07874*%
%ADD16R,0.07874X0.07874*%
%ADD17C,0.02400*%
%ADD18C,0.03000*%
%ADD19C,0.05000*%
G36*
X0281401Y0246246D02*
X0282062Y0245804D01*
X0282843Y0245649D01*
X0285749D01*
Y0245343D01*
X0307434D01*
Y0245485D01*
X0309865D01*
X0310009Y0245297D01*
X0310740Y0244736D01*
X0311592Y0244384D01*
X0312506Y0244263D01*
X0313419Y0244384D01*
X0314271Y0244736D01*
X0314593Y0244984D01*
X0315093Y0244737D01*
Y0222268D01*
X0313351Y0220525D01*
X0312889Y0220717D01*
Y0226595D01*
X0312873Y0226673D01*
Y0227339D01*
X0312718Y0228119D01*
X0312276Y0228781D01*
X0308992Y0232064D01*
X0308331Y0232506D01*
X0307551Y0232662D01*
X0307434D01*
Y0232816D01*
X0305501D01*
X0305250Y0232866D01*
X0304998Y0232816D01*
X0285749D01*
Y0228453D01*
Y0226045D01*
X0285259Y0225717D01*
X0269578Y0210037D01*
X0269127Y0210223D01*
X0267839Y0210393D01*
X0266550Y0210223D01*
X0265349Y0209726D01*
X0264317Y0208934D01*
X0263526Y0207903D01*
X0263029Y0206702D01*
X0262859Y0205413D01*
X0263029Y0204125D01*
X0263526Y0202924D01*
X0264317Y0201892D01*
X0265349Y0201101D01*
X0265954Y0200850D01*
X0265854Y0200350D01*
X0262902D01*
Y0190476D01*
X0272776D01*
Y0193429D01*
X0273276Y0193528D01*
X0273526Y0192924D01*
X0274318Y0191892D01*
X0275349Y0191101D01*
X0276550Y0190603D01*
X0277839Y0190434D01*
X0279127Y0190603D01*
X0280328Y0191101D01*
X0281360Y0191892D01*
X0282151Y0192924D01*
X0282648Y0194125D01*
X0282818Y0195413D01*
X0282648Y0196702D01*
X0282151Y0197903D01*
X0281360Y0198934D01*
X0280328Y0199726D01*
X0279322Y0200143D01*
Y0200684D01*
X0280328Y0201101D01*
X0281360Y0201892D01*
X0282151Y0202924D01*
X0282568Y0203930D01*
X0283109D01*
X0283526Y0202924D01*
X0284317Y0201892D01*
X0285349Y0201101D01*
X0286550Y0200604D01*
X0287839Y0200434D01*
X0289127Y0200604D01*
X0290328Y0201101D01*
X0291360Y0201892D01*
X0292151Y0202924D01*
X0292568Y0203930D01*
X0293109D01*
X0293526Y0202924D01*
X0294318Y0201892D01*
X0295349Y0201101D01*
X0296355Y0200684D01*
Y0200143D01*
X0295349Y0199726D01*
X0294318Y0198934D01*
X0293526Y0197903D01*
X0293029Y0196702D01*
X0292859Y0195413D01*
X0293029Y0194125D01*
X0293526Y0192924D01*
X0294318Y0191892D01*
X0295349Y0191101D01*
X0296550Y0190603D01*
X0297839Y0190434D01*
X0299127Y0190603D01*
X0299578Y0190790D01*
X0302995Y0187373D01*
X0303656Y0186931D01*
X0304437Y0186776D01*
X0313251D01*
X0314032Y0186931D01*
X0314693Y0187373D01*
X0326307Y0198987D01*
X0326769Y0198796D01*
Y0182688D01*
X0245613D01*
Y0226913D01*
X0245516Y0227401D01*
X0245240Y0227815D01*
X0239567Y0233488D01*
X0239153Y0233764D01*
X0238665Y0233861D01*
X0079816D01*
Y0236508D01*
X0081110D01*
Y0236650D01*
X0281030D01*
X0281688Y0235992D01*
X0282350Y0235549D01*
X0283131Y0235394D01*
X0285749D01*
Y0235146D01*
X0307434D01*
Y0238690D01*
Y0243052D01*
X0285749D01*
Y0243044D01*
X0285249Y0242837D01*
X0284805Y0243281D01*
X0284144Y0243723D01*
X0283363Y0243878D01*
X0081110D01*
Y0244020D01*
X0079816D01*
Y0245957D01*
X0081110D01*
Y0246367D01*
X0281280D01*
X0281401Y0246246D01*
D02*
G37*
G36*
X0326769Y0266680D02*
X0326307Y0266489D01*
X0314266Y0278529D01*
X0313605Y0278971D01*
X0312825Y0279127D01*
X0307434D01*
Y0279233D01*
X0305642D01*
X0305152Y0279330D01*
X0304661Y0279233D01*
X0285749D01*
Y0274871D01*
Y0271721D01*
Y0268571D01*
Y0265422D01*
X0305104D01*
X0305262Y0265390D01*
X0305421Y0265422D01*
X0307434D01*
Y0265594D01*
X0309979D01*
X0315093Y0260480D01*
Y0258165D01*
X0314645Y0257944D01*
X0314607Y0257974D01*
X0313755Y0258326D01*
X0312842Y0258447D01*
X0311928Y0258326D01*
X0311076Y0257974D01*
X0310345Y0257413D01*
X0309784Y0256681D01*
X0309432Y0255830D01*
X0309311Y0254916D01*
X0309386Y0254345D01*
X0307923Y0252882D01*
X0307434Y0252855D01*
Y0252855D01*
X0285749D01*
X0285749Y0252855D01*
X0285249Y0252780D01*
X0284664Y0253171D01*
X0283884Y0253327D01*
X0081110D01*
Y0253468D01*
X0079816D01*
Y0255405D01*
X0081110D01*
Y0255547D01*
X0285749D01*
Y0255186D01*
X0307434D01*
Y0258729D01*
Y0263091D01*
X0285749D01*
Y0262775D01*
X0081110D01*
Y0262917D01*
X0079816D01*
Y0267139D01*
X0239173D01*
X0239661Y0267236D01*
X0240074Y0267512D01*
X0253374Y0280812D01*
X0326769D01*
Y0266680D01*
D02*
G37*
D10*
X0073220Y0235539D02*
D03*
Y0244988D02*
D03*
Y0254437D02*
D03*
Y0263886D02*
D03*
D11*
X0074992Y0248138D02*
D03*
Y0251287D02*
D03*
D12*
X0075779Y0238689D02*
D03*
Y0241839D02*
D03*
Y0260736D02*
D03*
Y0257587D02*
D03*
D13*
X0296591Y0257367D02*
D03*
Y0260910D02*
D03*
Y0250674D02*
D03*
Y0240871D02*
D03*
Y0237327D02*
D03*
Y0264453D02*
D03*
Y0253823D02*
D03*
Y0247524D02*
D03*
Y0244375D02*
D03*
Y0233784D02*
D03*
Y0230634D02*
D03*
Y0224335D02*
D03*
Y0227485D02*
D03*
Y0267603D02*
D03*
Y0270753D02*
D03*
Y0277052D02*
D03*
Y0273902D02*
D03*
D14*
X0286701Y0224275D02*
X0305250D01*
X0267839Y0205413D02*
X0286701Y0224275D01*
X0297839Y0195413D02*
X0304437Y0188815D01*
X0313251D01*
X0325951Y0201514D01*
Y0263961D01*
X0307839Y0195413D02*
X0322533Y0210107D01*
Y0263561D01*
X0307839Y0205413D02*
X0319832Y0217407D01*
Y0262443D01*
X0302202Y0207748D02*
X0305504Y0211050D01*
X0306760D01*
X0317132Y0221423D01*
Y0261324D01*
X0296285Y0213859D02*
X0305190D01*
X0310849Y0219518D01*
Y0226595D01*
X0302202Y0206492D02*
Y0207748D01*
X0290207Y0217781D02*
X0303465D01*
X0308150Y0222465D01*
Y0225477D01*
X0312825Y0277087D02*
X0325951Y0263961D01*
X0310823Y0267633D02*
X0317132Y0261324D01*
X0311742Y0270533D02*
X0319832Y0262443D01*
X0312126Y0273967D02*
X0322533Y0263561D01*
X0307930Y0253823D02*
X0308366Y0254259D01*
Y0263116D01*
X0307018Y0264464D02*
X0308366Y0263116D01*
X0310834Y0226610D02*
X0310849Y0226595D01*
X0310834Y0226610D02*
Y0227339D01*
X0307551Y0230622D02*
X0310834Y0227339D01*
X0308134Y0225492D02*
X0308150Y0225477D01*
X0308134Y0225492D02*
Y0226220D01*
X0306881Y0227473D02*
X0308134Y0226220D01*
X0305219Y0227473D02*
X0306881D01*
X0305392Y0270533D02*
X0311742D01*
X0305262Y0267633D02*
X0310823D01*
X0296591Y0253823D02*
X0307930D01*
X0296603Y0264464D02*
X0307018D01*
X0308599Y0250674D02*
X0312842Y0254916D01*
X0296591Y0250674D02*
X0308599D01*
X0305152Y0277087D02*
X0312825D01*
X0305152Y0273967D02*
X0312126D01*
X0305152Y0270773D02*
X0305392Y0270533D01*
X0296591Y0247524D02*
X0312236D01*
X0312506Y0247793D01*
X0308239Y0234542D02*
Y0243671D01*
X0307611Y0244298D02*
X0308239Y0243671D01*
X0305250Y0244298D02*
X0307611D01*
X0305250Y0230622D02*
X0307551D01*
X0297839Y0205413D02*
X0301122D01*
X0302202Y0206492D01*
X0287839Y0205413D02*
X0296285Y0213859D01*
X0277839Y0205413D02*
X0290207Y0217781D01*
X0287877Y0234446D02*
X0295929D01*
X0287864Y0234433D02*
X0287877Y0234446D01*
X0281888Y0234433D02*
X0287864D01*
X0280632Y0235689D02*
X0281888Y0234433D01*
X0073370Y0235689D02*
X0280632D01*
X0295929Y0234446D02*
X0296591Y0233784D01*
X0307480D02*
X0308239Y0234542D01*
X0073220Y0263886D02*
X0296024D01*
X0296591Y0264453D02*
X0296603Y0264464D01*
X0305066Y0233784D02*
X0305250Y0233967D01*
X0305433Y0233784D01*
X0307480D01*
X0282843Y0247688D02*
X0296427D01*
X0282125Y0248406D02*
X0282843Y0247688D01*
X0296427D02*
X0296591Y0247524D01*
X0296323Y0244643D02*
X0296591Y0244375D01*
X0285700Y0244643D02*
X0296323D01*
X0074992Y0248138D02*
X0075261Y0248406D01*
X0282125D01*
X0285355Y0244988D02*
X0285700Y0244643D01*
X0284497Y0250674D02*
X0296591D01*
X0283884Y0251287D02*
X0284497Y0250674D01*
X0074992Y0251287D02*
X0283884D01*
X0073370Y0254587D02*
X0284877D01*
X0075779Y0257587D02*
X0296034D01*
X0284877Y0254587D02*
X0285641Y0253823D01*
X0073220Y0235539D02*
X0073370Y0235689D01*
X0073220Y0244988D02*
X0285355D01*
X0073220Y0254437D02*
X0073370Y0254587D01*
X0285641Y0253823D02*
X0296591D01*
X0296024Y0263886D02*
X0296591Y0264453D01*
X0283131Y0237433D02*
X0286621D01*
X0281875Y0238689D02*
X0283131Y0237433D01*
X0075779Y0238689D02*
X0281875D01*
X0284769Y0240433D02*
X0298277D01*
X0283363Y0241839D02*
X0284769Y0240433D01*
X0075779Y0241839D02*
X0283363D01*
X0075779Y0260736D02*
X0297778D01*
D15*
X0307839Y0205413D02*
D03*
X0287839D02*
D03*
X0297839D02*
D03*
X0307839Y0195413D02*
D03*
X0287839D02*
D03*
X0297839D02*
D03*
X0277839Y0205413D02*
D03*
X0267839D02*
D03*
X0277839Y0195413D02*
D03*
D16*
X0267839D02*
D03*
D17*
X0308528Y0264080D02*
D03*
X0306821Y0254004D02*
D03*
X0284653Y0264372D02*
D03*
X0125227Y0235385D02*
D03*
X0220601Y0235374D02*
D03*
X0193824Y0235226D02*
D03*
X0170666Y0235366D02*
D03*
X0146666Y0235226D02*
D03*
X0107789D02*
D03*
X0091789Y0235366D02*
D03*
X0220307Y0265079D02*
D03*
X0192518Y0265233D02*
D03*
X0169824D02*
D03*
X0144346Y0265004D02*
D03*
X0124777Y0265003D02*
D03*
X0106254Y0265193D02*
D03*
X0090759Y0265438D02*
D03*
X0305152Y0273967D02*
D03*
Y0270773D02*
D03*
X0305262Y0267633D02*
D03*
X0305250Y0224275D02*
D03*
X0293636Y0233942D02*
D03*
X0288126Y0233795D02*
D03*
X0293439Y0244371D02*
D03*
X0288417Y0244241D02*
D03*
X0305219Y0227473D02*
D03*
X0305250Y0230622D02*
D03*
X0305152Y0277087D02*
D03*
X0305250Y0244298D02*
D03*
D18*
X0320000Y0190000D02*
D03*
X0280000Y0270000D02*
D03*
Y0230000D02*
D03*
X0270000Y0270000D02*
D03*
Y0230000D02*
D03*
X0275000Y0220000D02*
D03*
X0260000Y0270000D02*
D03*
Y0230000D02*
D03*
X0265000Y0220000D02*
D03*
X0250000Y0270000D02*
D03*
Y0230000D02*
D03*
X0255000Y0220000D02*
D03*
X0250000Y0210000D02*
D03*
Y0190000D02*
D03*
D19*
X0312506Y0247793D02*
D03*
X0312842Y0254916D02*
D03*
M02*
