G04 Layer_Color=8388736*
%FSAX25Y25*%
%MOIN*%
G70*
G01*
G75*
%ADD23R,0.14579X0.03162*%
%ADD24R,0.11036X0.03162*%
%ADD25R,0.09461X0.03162*%
%ADD26R,0.20485X0.03162*%
%ADD27C,0.08674*%
%ADD28R,0.08674X0.08674*%
%ADD29C,0.03200*%
D23*
X0073220Y0235539D02*
D03*
Y0244988D02*
D03*
Y0254437D02*
D03*
Y0263886D02*
D03*
D24*
X0074992Y0248138D02*
D03*
Y0251287D02*
D03*
D25*
X0075779Y0238689D02*
D03*
Y0241839D02*
D03*
Y0260736D02*
D03*
Y0257587D02*
D03*
D26*
X0296591Y0257367D02*
D03*
Y0260910D02*
D03*
Y0250674D02*
D03*
Y0240871D02*
D03*
Y0237327D02*
D03*
Y0264453D02*
D03*
Y0253823D02*
D03*
Y0247524D02*
D03*
Y0244375D02*
D03*
Y0233784D02*
D03*
Y0230634D02*
D03*
Y0224335D02*
D03*
Y0227485D02*
D03*
Y0267603D02*
D03*
Y0270753D02*
D03*
Y0277052D02*
D03*
Y0273902D02*
D03*
D27*
X0307839Y0205413D02*
D03*
X0287839D02*
D03*
X0297839D02*
D03*
X0307839Y0195413D02*
D03*
X0287839D02*
D03*
X0297839D02*
D03*
X0277839Y0205413D02*
D03*
X0267839D02*
D03*
X0277839Y0195413D02*
D03*
D28*
X0267839D02*
D03*
D29*
X0308528Y0264080D02*
D03*
X0306821Y0254004D02*
D03*
X0284653Y0264372D02*
D03*
M02*
