M48
;Layer_Color=9474304
;FILE_FORMAT=2:5
INCH
;TYPE=PLATED
T1F00S00C0.01500
T2F00S00C0.02800
T3F00S00C0.04331
%
T01
X0320000Y0190000
X0305250Y0224275
X0305219Y0227473
X0305250Y0230622
Y0244298
X0306821Y0254004
X0308528Y0264080
X0305262Y0267633
X0305152Y0270773
Y0273967
Y0277087
X0280000Y0270000
X0270000
X0260000
X0250000
X0220307Y0265079
X0192518Y0265233
X0169824
X0170666Y0235366
X0193824Y0235226
X0220601Y0235374
X0250000Y0230000
X0260000
X0270000
X0280000
X0288126Y0233795
X0293636Y0233942
X0293439Y0244371
X0288417Y0244241
X0284653Y0264372
X0275000Y0220000
X0265000
X0255000
X0250000Y0210000
Y0190000
X0146666Y0235226
X0125227Y0235385
X0107789Y0235226
X0091789Y0235366
X0090759Y0265438
X0106254Y0265193
X0124777Y0265003
X0144346Y0265004
T02
X0312506Y0247793
X0312842Y0254916
T03
X0267839Y0195413
Y0205413
X0277839
X0287839
X0297839
X0307839
Y0195413
X0297839
X0287839
X0277839
M30
