G04 Layer_Color=65535*
%FSAX25Y25*%
%MOIN*%
G70*
G01*
G75*
%ADD21C,0.00787*%
%ADD22C,0.01000*%
D21*
X0312839Y0190413D02*
Y0210413D01*
X0262839D02*
X0312839D01*
X0262839Y0190413D02*
X0312839D01*
X0262839D02*
Y0210413D01*
D22*
X0282339Y0184413D02*
X0294339D01*
X0256340Y0182913D02*
X0260339Y0184913D01*
X0256340Y0186912D01*
Y0192910D02*
Y0189911D01*
X0257340Y0188911D01*
X0259339D01*
X0260339Y0189911D01*
Y0192910D01*
X0256340Y0198908D02*
Y0195909D01*
X0257340Y0194910D01*
X0259339D01*
X0260339Y0195909D01*
Y0198908D01*
X0255340Y0201907D02*
X0256340D01*
Y0200908D01*
Y0202907D01*
Y0201907D01*
X0259339D01*
X0260339Y0202907D01*
X0111339Y0259912D02*
Y0255913D01*
Y0257246D01*
X0114004Y0259912D01*
X0112005Y0257913D01*
X0114004Y0255913D01*
X0117337Y0259912D02*
X0116004D01*
X0115337Y0259246D01*
Y0256580D01*
X0116004Y0255913D01*
X0117337D01*
X0118003Y0256580D01*
Y0259246D01*
X0117337Y0259912D01*
X0119336Y0255913D02*
Y0259912D01*
X0121335D01*
X0122002Y0259246D01*
Y0257913D01*
X0121335Y0257246D01*
X0119336D01*
X0120669D02*
X0122002Y0255913D01*
X0123335Y0259912D02*
Y0256580D01*
X0124001Y0255913D01*
X0125334D01*
X0126000Y0256580D01*
Y0259912D01*
X0127333D02*
X0129999D01*
Y0259246D01*
X0127333Y0256580D01*
Y0255913D01*
X0129999D01*
X0131332D02*
Y0258579D01*
X0132665Y0259912D01*
X0133998Y0258579D01*
Y0255913D01*
Y0257913D01*
X0131332D01*
X0141995Y0259246D02*
X0141329Y0259912D01*
X0139996D01*
X0139330Y0259246D01*
Y0258579D01*
X0139996Y0257913D01*
X0141329D01*
X0141995Y0257246D01*
Y0256580D01*
X0141329Y0255913D01*
X0139996D01*
X0139330Y0256580D01*
X0145994Y0259912D02*
X0143328D01*
Y0257913D01*
X0144661D01*
X0143328D01*
Y0255913D01*
X0147327D02*
Y0259912D01*
X0149326D01*
X0149993Y0259246D01*
Y0257913D01*
X0149326Y0257246D01*
X0147327D01*
X0157324Y0255913D02*
X0155991D01*
X0155324Y0256580D01*
Y0257913D01*
X0155991Y0258579D01*
X0157324D01*
X0157990Y0257913D01*
Y0257246D01*
X0155324D01*
X0159323Y0258579D02*
X0161989Y0255913D01*
X0160656Y0257246D01*
X0161989Y0258579D01*
X0159323Y0255913D01*
X0163988Y0259246D02*
Y0258579D01*
X0163322D01*
X0164655D01*
X0163988D01*
Y0256580D01*
X0164655Y0255913D01*
X0168653D02*
X0167321D01*
X0166654Y0256580D01*
Y0257913D01*
X0167321Y0258579D01*
X0168653D01*
X0169320Y0257913D01*
Y0257246D01*
X0166654D01*
X0170653Y0255913D02*
Y0258579D01*
X0172652D01*
X0173319Y0257913D01*
Y0255913D01*
X0174652D02*
X0176651D01*
X0177317Y0256580D01*
X0176651Y0257246D01*
X0175318D01*
X0174652Y0257913D01*
X0175318Y0258579D01*
X0177317D01*
X0178650Y0255913D02*
X0179983D01*
X0179317D01*
Y0258579D01*
X0178650D01*
X0182649Y0255913D02*
X0183982D01*
X0184648Y0256580D01*
Y0257913D01*
X0183982Y0258579D01*
X0182649D01*
X0181983Y0257913D01*
Y0256580D01*
X0182649Y0255913D01*
X0185981D02*
Y0258579D01*
X0187980D01*
X0188647Y0257913D01*
Y0255913D01*
X0193979Y0257913D02*
X0196644D01*
X0201976Y0254580D02*
Y0258579D01*
X0203975D01*
X0204642Y0257913D01*
Y0256580D01*
X0203975Y0255913D01*
X0201976D01*
X0205975D02*
X0207308D01*
X0206641D01*
Y0259912D01*
X0205975D01*
X0209307Y0258579D02*
Y0256580D01*
X0209973Y0255913D01*
X0211973D01*
Y0258579D01*
X0214639Y0254580D02*
X0215305D01*
X0215971Y0255247D01*
Y0258579D01*
X0213972D01*
X0213306Y0257913D01*
Y0256580D01*
X0213972Y0255913D01*
X0215971D01*
X0111339Y0247412D02*
X0112671D01*
X0112005D01*
Y0243413D01*
X0111339D01*
X0112671D01*
X0114671D02*
Y0247412D01*
X0116670D01*
X0117337Y0246746D01*
Y0245413D01*
X0116670Y0244746D01*
X0114671D01*
X0116004D02*
X0117337Y0243413D01*
X0118670D02*
Y0247412D01*
X0121335Y0243413D01*
Y0247412D01*
X0122668Y0243413D02*
Y0246079D01*
X0124001Y0247412D01*
X0125334Y0246079D01*
Y0243413D01*
Y0245413D01*
X0122668D01*
X0129333Y0246746D02*
X0128666Y0247412D01*
X0127333D01*
X0126667Y0246746D01*
Y0246079D01*
X0127333Y0245413D01*
X0128666D01*
X0129333Y0244746D01*
Y0244080D01*
X0128666Y0243413D01*
X0127333D01*
X0126667Y0244080D01*
X0134664Y0245413D02*
X0137330D01*
X0142662Y0243413D02*
Y0247412D01*
X0143995Y0246079D01*
X0145328Y0247412D01*
Y0243413D01*
X0146660Y0246079D02*
Y0244080D01*
X0147327Y0243413D01*
X0149326D01*
Y0246079D01*
X0150659Y0243413D02*
X0152659D01*
X0153325Y0244080D01*
X0152659Y0244746D01*
X0151326D01*
X0150659Y0245413D01*
X0151326Y0246079D01*
X0153325D01*
X0155324Y0246746D02*
Y0246079D01*
X0154658D01*
X0155991D01*
X0155324D01*
Y0244080D01*
X0155991Y0243413D01*
X0157990D02*
X0159323D01*
X0158657D01*
Y0246079D01*
X0157990D01*
X0165321Y0245413D02*
X0167987D01*
X0173319Y0246079D02*
X0174652Y0243413D01*
X0175984Y0246079D01*
X0179317Y0243413D02*
X0177984D01*
X0177317Y0244080D01*
Y0245413D01*
X0177984Y0246079D01*
X0179317D01*
X0179983Y0245413D01*
Y0244746D01*
X0177317D01*
X0181316Y0246079D02*
Y0243413D01*
Y0244746D01*
X0181983Y0245413D01*
X0182649Y0246079D01*
X0183315D01*
X0187980Y0243413D02*
X0185315D01*
X0187980Y0246079D01*
Y0246746D01*
X0187314Y0247412D01*
X0185981D01*
X0185315Y0246746D01*
X0189313Y0243413D02*
Y0244080D01*
X0189980D01*
Y0243413D01*
X0189313D01*
X0192646Y0246746D02*
X0193312Y0247412D01*
X0194645D01*
X0195311Y0246746D01*
Y0244080D01*
X0194645Y0243413D01*
X0193312D01*
X0192646Y0244080D01*
Y0246746D01*
M02*
