G04 Layer_Physical_Order=2*
G04 Layer_Color=16711680*
%FSAX25Y25*%
%MOIN*%
G70*
G01*
G75*
%ADD10R,0.13780X0.02362*%
%ADD12R,0.08661X0.02362*%
%ADD14C,0.02000*%
%ADD15C,0.07874*%
%ADD16R,0.07874X0.07874*%
%ADD17C,0.02400*%
%ADD18C,0.03000*%
%ADD19C,0.05000*%
%ADD20C,0.00700*%
G36*
X0326769Y0182688D02*
X0245613D01*
Y0226913D01*
X0245516Y0227401D01*
X0245240Y0227815D01*
X0239567Y0233488D01*
X0239153Y0233764D01*
X0238665Y0233861D01*
X0079707D01*
Y0238083D01*
X0081110D01*
Y0239456D01*
X0086930Y0245275D01*
X0295275D01*
X0298745Y0241805D01*
Y0231954D01*
X0298850Y0231427D01*
X0299148Y0230980D01*
X0300223Y0229906D01*
Y0229111D01*
X0300328Y0228584D01*
X0300626Y0228137D01*
X0301592Y0227171D01*
Y0226541D01*
X0301697Y0226015D01*
X0301995Y0225568D01*
X0303053Y0224510D01*
X0303006Y0224275D01*
X0303177Y0223417D01*
X0303663Y0222689D01*
X0304391Y0222203D01*
X0305250Y0222032D01*
X0306108Y0222203D01*
X0306836Y0222689D01*
X0307322Y0223417D01*
X0307493Y0224275D01*
X0307322Y0225134D01*
X0306836Y0225862D01*
X0306805Y0225882D01*
Y0225887D01*
X0307291Y0226615D01*
X0307462Y0227473D01*
X0307291Y0228332D01*
X0306825Y0229029D01*
X0306836Y0229036D01*
X0307322Y0229764D01*
X0307493Y0230622D01*
X0307322Y0231481D01*
X0306836Y0232208D01*
X0306108Y0232695D01*
X0305250Y0232866D01*
X0305138Y0232843D01*
X0304298Y0233684D01*
Y0243535D01*
X0304298Y0243535D01*
X0304193Y0244062D01*
X0303895Y0244509D01*
X0299071Y0249332D01*
X0299120Y0249830D01*
X0299193Y0249878D01*
X0303861Y0254546D01*
X0303861Y0254546D01*
X0304159Y0254993D01*
X0304264Y0255520D01*
X0304264Y0255520D01*
Y0265138D01*
X0304688Y0265505D01*
X0305262Y0265390D01*
X0306121Y0265561D01*
X0306849Y0266047D01*
X0307335Y0266775D01*
X0307506Y0267633D01*
X0307335Y0268492D01*
X0306849Y0269219D01*
X0306787Y0269261D01*
X0307224Y0269915D01*
X0307395Y0270773D01*
X0307224Y0271632D01*
X0307005Y0271959D01*
X0306745Y0272370D01*
X0307005Y0272782D01*
X0307224Y0273109D01*
X0307395Y0273967D01*
X0307224Y0274826D01*
X0306755Y0275527D01*
X0307224Y0276229D01*
X0307395Y0277087D01*
X0307224Y0277946D01*
X0306738Y0278674D01*
X0306010Y0279160D01*
X0305152Y0279330D01*
X0304293Y0279160D01*
X0303565Y0278674D01*
X0303342Y0278339D01*
X0302925Y0278061D01*
X0302925Y0278061D01*
X0297714Y0272850D01*
X0297416Y0272403D01*
X0297311Y0271876D01*
Y0257829D01*
X0295909Y0256428D01*
X0084546D01*
X0081110Y0259863D01*
Y0261343D01*
X0079707D01*
Y0267139D01*
X0239173D01*
X0239661Y0267236D01*
X0240074Y0267512D01*
X0253374Y0280812D01*
X0326769D01*
Y0182688D01*
D02*
G37*
%LPC*%
G36*
X0312842Y0258447D02*
X0311928Y0258326D01*
X0311076Y0257974D01*
X0310345Y0257413D01*
X0309784Y0256681D01*
X0309432Y0255830D01*
X0309311Y0254916D01*
X0309432Y0254003D01*
X0309592Y0253615D01*
X0309324Y0253435D01*
X0306864Y0250975D01*
X0306421Y0250313D01*
X0306266Y0249533D01*
Y0244996D01*
X0306421Y0244215D01*
X0306864Y0243554D01*
X0308560Y0241857D01*
Y0220164D01*
X0306530Y0218135D01*
X0261916D01*
X0261136Y0217979D01*
X0260474Y0217537D01*
X0256048Y0213111D01*
X0255606Y0212449D01*
X0255450Y0211669D01*
Y0195484D01*
X0255606Y0194704D01*
X0256048Y0194042D01*
X0261755Y0188335D01*
X0262417Y0187892D01*
X0263197Y0187737D01*
X0272639D01*
X0273041Y0187468D01*
X0273821Y0187313D01*
X0274602Y0187468D01*
X0275263Y0187910D01*
X0277793Y0190440D01*
X0277839Y0190434D01*
X0279127Y0190603D01*
X0280328Y0191101D01*
X0281360Y0191892D01*
X0282151Y0192924D01*
X0282648Y0194125D01*
X0282818Y0195413D01*
X0282648Y0196702D01*
X0282151Y0197903D01*
X0281360Y0198934D01*
X0280328Y0199726D01*
X0279322Y0200143D01*
Y0200684D01*
X0280328Y0201101D01*
X0281360Y0201892D01*
X0282151Y0202924D01*
X0282568Y0203930D01*
X0283109D01*
X0283526Y0202924D01*
X0284317Y0201892D01*
X0285349Y0201101D01*
X0286550Y0200604D01*
X0287839Y0200434D01*
X0289127Y0200604D01*
X0290328Y0201101D01*
X0291360Y0201892D01*
X0292151Y0202924D01*
X0292568Y0203930D01*
X0293109D01*
X0293526Y0202924D01*
X0294318Y0201892D01*
X0295349Y0201101D01*
X0296355Y0200684D01*
Y0200143D01*
X0295349Y0199726D01*
X0294318Y0198934D01*
X0293526Y0197903D01*
X0293029Y0196702D01*
X0292859Y0195413D01*
X0293029Y0194125D01*
X0293526Y0192924D01*
X0294318Y0191892D01*
X0295349Y0191101D01*
X0296550Y0190603D01*
X0297839Y0190434D01*
X0299127Y0190603D01*
X0300328Y0191101D01*
X0301360Y0191892D01*
X0302151Y0192924D01*
X0302568Y0193930D01*
X0303109D01*
X0303526Y0192924D01*
X0304317Y0191892D01*
X0305349Y0191101D01*
X0306550Y0190603D01*
X0307839Y0190434D01*
X0309127Y0190603D01*
X0310328Y0191101D01*
X0311360Y0191892D01*
X0312151Y0192924D01*
X0312649Y0194125D01*
X0312818Y0195413D01*
X0312649Y0196702D01*
X0312151Y0197903D01*
X0311360Y0198934D01*
X0310328Y0199726D01*
X0309322Y0200143D01*
Y0200684D01*
X0310328Y0201101D01*
X0311360Y0201892D01*
X0312151Y0202924D01*
X0312649Y0204125D01*
X0312818Y0205413D01*
X0312649Y0206702D01*
X0312151Y0207903D01*
X0311360Y0208934D01*
X0310328Y0209726D01*
X0309127Y0210223D01*
X0307839Y0210393D01*
X0306550Y0210223D01*
X0305349Y0209726D01*
X0304317Y0208934D01*
X0303526Y0207903D01*
X0303109Y0206897D01*
X0302568D01*
X0302151Y0207903D01*
X0301360Y0208934D01*
X0300328Y0209726D01*
X0299127Y0210223D01*
X0297839Y0210393D01*
X0296550Y0210223D01*
X0295349Y0209726D01*
X0294318Y0208934D01*
X0293526Y0207903D01*
X0293109Y0206897D01*
X0292568D01*
X0292151Y0207903D01*
X0291360Y0208934D01*
X0290328Y0209726D01*
X0289127Y0210223D01*
X0287839Y0210393D01*
X0286550Y0210223D01*
X0285349Y0209726D01*
X0284317Y0208934D01*
X0283526Y0207903D01*
X0283109Y0206897D01*
X0282568D01*
X0282151Y0207903D01*
X0281360Y0208934D01*
X0280328Y0209726D01*
X0279127Y0210223D01*
X0277839Y0210393D01*
X0276550Y0210223D01*
X0275349Y0209726D01*
X0274318Y0208934D01*
X0273526Y0207903D01*
X0273109Y0206897D01*
X0272568D01*
X0272151Y0207903D01*
X0271360Y0208934D01*
X0270328Y0209726D01*
X0269127Y0210223D01*
X0267839Y0210393D01*
X0266550Y0210223D01*
X0265349Y0209726D01*
X0264317Y0208934D01*
X0263526Y0207903D01*
X0263091Y0206852D01*
X0262591Y0206951D01*
Y0210068D01*
X0263879Y0211356D01*
X0308493D01*
X0309274Y0211511D01*
X0309935Y0211953D01*
X0314741Y0216759D01*
X0315183Y0217421D01*
X0315339Y0218201D01*
Y0245736D01*
X0315563Y0246028D01*
X0315915Y0246880D01*
X0316036Y0247793D01*
X0315915Y0248707D01*
X0315563Y0249558D01*
X0315002Y0250290D01*
X0314639Y0250568D01*
X0314300Y0250901D01*
X0314513Y0251261D01*
X0314725Y0251579D01*
X0314813Y0252017D01*
X0315338Y0252420D01*
X0315899Y0253151D01*
X0316251Y0254003D01*
X0316372Y0254916D01*
X0316251Y0255830D01*
X0315899Y0256681D01*
X0315338Y0257413D01*
X0314607Y0257974D01*
X0313755Y0258326D01*
X0312842Y0258447D01*
D02*
G37*
%LPD*%
D10*
X0073220Y0237114D02*
D03*
Y0262311D02*
D03*
Y0265461D02*
D03*
D12*
X0075779Y0240264D02*
D03*
Y0243413D02*
D03*
Y0249713D02*
D03*
Y0246563D02*
D03*
Y0252862D02*
D03*
Y0259161D02*
D03*
Y0256012D02*
D03*
D14*
X0308306Y0244996D02*
X0310599Y0242702D01*
X0308306Y0244996D02*
Y0249533D01*
X0312475Y0251993D02*
X0312842Y0252359D01*
X0310766Y0251993D02*
X0312475D01*
X0308306Y0249533D02*
X0310766Y0251993D01*
X0312506Y0246735D02*
Y0247793D01*
Y0246735D02*
X0313299Y0245941D01*
X0312842Y0252359D02*
Y0254916D01*
X0310599Y0219320D02*
Y0242702D01*
X0313299Y0218201D02*
Y0245941D01*
X0307375Y0216095D02*
X0310599Y0219320D01*
X0308493Y0213395D02*
X0313299Y0218201D01*
X0261916Y0216095D02*
X0307375D01*
X0257489Y0211669D02*
X0261916Y0216095D01*
X0257489Y0195484D02*
Y0211669D01*
Y0195484D02*
X0263197Y0189776D01*
X0273397D01*
X0273821Y0189352D01*
X0277839Y0193369D01*
Y0195413D01*
X0263035Y0213395D02*
X0308493D01*
X0260552Y0210912D02*
X0263035Y0213395D01*
X0260552Y0199816D02*
Y0210912D01*
Y0199816D02*
X0264954Y0195413D01*
X0267839D01*
D15*
X0307839Y0205413D02*
D03*
X0287839D02*
D03*
X0297839D02*
D03*
X0307839Y0195413D02*
D03*
X0287839D02*
D03*
X0297839D02*
D03*
X0277839Y0205413D02*
D03*
X0267839D02*
D03*
X0277839Y0195413D02*
D03*
D16*
X0267839D02*
D03*
D17*
X0308528Y0264080D02*
D03*
X0306821Y0254004D02*
D03*
X0284653Y0264372D02*
D03*
X0125227Y0235385D02*
D03*
X0220601Y0235374D02*
D03*
X0193824Y0235226D02*
D03*
X0170666Y0235366D02*
D03*
X0146666Y0235226D02*
D03*
X0107789D02*
D03*
X0091789Y0235366D02*
D03*
X0220307Y0265079D02*
D03*
X0192518Y0265233D02*
D03*
X0169824D02*
D03*
X0144346Y0265004D02*
D03*
X0124777Y0265003D02*
D03*
X0106254Y0265193D02*
D03*
X0090759Y0265438D02*
D03*
X0305152Y0273967D02*
D03*
Y0270773D02*
D03*
X0305262Y0267633D02*
D03*
X0305250Y0224275D02*
D03*
X0293636Y0233942D02*
D03*
X0288126Y0233795D02*
D03*
X0293439Y0244371D02*
D03*
X0288417Y0244241D02*
D03*
X0305219Y0227473D02*
D03*
X0305250Y0230622D02*
D03*
X0305152Y0277087D02*
D03*
X0305250Y0244298D02*
D03*
D18*
X0320000Y0190000D02*
D03*
X0280000Y0270000D02*
D03*
Y0230000D02*
D03*
X0270000Y0270000D02*
D03*
Y0230000D02*
D03*
X0275000Y0220000D02*
D03*
X0260000Y0270000D02*
D03*
Y0230000D02*
D03*
X0265000Y0220000D02*
D03*
X0250000Y0270000D02*
D03*
Y0230000D02*
D03*
X0255000Y0220000D02*
D03*
X0250000Y0210000D02*
D03*
Y0190000D02*
D03*
D19*
X0312506Y0247793D02*
D03*
X0312842Y0254916D02*
D03*
D20*
X0300087Y0268903D02*
X0305152Y0273967D01*
X0301487Y0267109D02*
X0305152Y0270773D01*
X0300087Y0256680D02*
Y0268903D01*
X0298688Y0271876D02*
X0303899Y0277087D01*
X0298688Y0257259D02*
Y0271876D01*
X0304629Y0267633D02*
X0305262D01*
X0305235Y0224275D02*
X0305250D01*
X0302969Y0226541D02*
X0305235Y0224275D01*
X0083595Y0249826D02*
X0084620Y0250851D01*
X0297005Y0249451D02*
X0302922Y0243535D01*
X0083241Y0247492D02*
X0085200Y0249451D01*
X0296425Y0248051D02*
X0301521Y0242955D01*
X0081142Y0243413D02*
X0085780Y0248051D01*
X0084620Y0250851D02*
X0298219D01*
X0302888Y0255520D01*
X0083396Y0253651D02*
X0297059D01*
X0081035Y0256012D02*
X0083396Y0253651D01*
X0080088Y0258939D02*
X0083975Y0255051D01*
X0296480D02*
X0298688Y0257259D01*
X0083975Y0255051D02*
X0296480D01*
X0297059Y0253651D02*
X0300087Y0256680D01*
X0297639Y0252251D02*
X0301487Y0256100D01*
X0084040Y0252251D02*
X0297639D01*
X0083348Y0251559D02*
X0084040Y0252251D01*
X0085200Y0249451D02*
X0297005D01*
X0085780Y0248051D02*
X0296425D01*
X0295846Y0246651D02*
X0300121Y0242375D01*
X0086360Y0246651D02*
X0295846D01*
X0079972Y0240264D02*
X0086360Y0246651D01*
X0302922Y0233113D02*
Y0243535D01*
X0301521Y0232534D02*
Y0242955D01*
X0300121Y0231954D02*
Y0242375D01*
Y0231954D02*
X0301600Y0230476D01*
Y0229111D02*
Y0230476D01*
X0301521Y0232534D02*
X0302999Y0231055D01*
Y0229690D02*
Y0231055D01*
X0302922Y0233113D02*
X0305250Y0230785D01*
X0302969Y0226541D02*
Y0227742D01*
X0301600Y0229111D02*
X0302969Y0227742D01*
X0302999Y0229690D02*
X0305217Y0227473D01*
X0305219D01*
X0305250Y0230622D02*
Y0230785D01*
X0302888Y0255520D02*
Y0265891D01*
X0301487Y0256100D02*
Y0267109D01*
X0302888Y0265891D02*
X0304629Y0267633D01*
X0075779Y0256012D02*
X0081035D01*
X0077028Y0258939D02*
X0080088D01*
X0082045Y0252862D02*
X0083348Y0251559D01*
X0075779Y0252862D02*
X0082045D01*
X0075893Y0249826D02*
X0083595D01*
X0080556Y0247492D02*
X0083241D01*
X0075779Y0243413D02*
X0081142D01*
X0075779Y0240264D02*
X0079972D01*
X0075779Y0249713D02*
X0075893Y0249826D01*
X0080545Y0247481D02*
X0080556Y0247492D01*
X0076698Y0247481D02*
X0080545D01*
X0075779Y0246563D02*
X0076698Y0247481D01*
X0303899Y0277087D02*
X0305152D01*
X0075779Y0259161D02*
X0075888Y0259269D01*
M02*
